<svg width="36" height="36" viewBox="0 0 36 36" fill="none" xmlns="http://www.w3.org/2000/svg">
<circle cx="18" cy="18" r="18" fill="#F5F5F5"/>
<path d="M23.3434 13.2425L17.0259 19.5833C16.9535 19.5414 16.8773 19.5062 16.7984 19.4783L12.6276 18.0667C12.5014 18.0351 12.3895 17.9622 12.3095 17.8597C12.2295 17.7572 12.186 17.6309 12.186 17.5008C12.186 17.3708 12.2295 17.2445 12.3095 17.142C12.3895 17.0395 12.5014 16.9666 12.6276 16.935L22.9759 13.2542C23.0435 13.2312 23.1145 13.2194 23.1859 13.2192C23.2393 13.2183 23.2925 13.2262 23.3434 13.2425Z" fill="#84829A"/>
<path d="M23.7456 14.0242L20.0648 24.3842C20.0242 24.5049 19.9452 24.6091 19.8399 24.6807C19.7345 24.7523 19.6087 24.7875 19.4815 24.7808C19.3528 24.7867 19.2258 24.7499 19.1203 24.676C19.0147 24.6021 18.9366 24.4954 18.8981 24.3725L17.5098 20.2017C17.4819 20.1228 17.4467 20.0466 17.4048 19.9742L23.7573 13.6567C23.7931 13.7772 23.789 13.9061 23.7456 14.0242Z" fill="#84829A"/>
</svg>
